HIERARCHY
ROOT Hips
{
	OFFSET 0.00000 0.00000 0.00000
	CHANNELS 6 Xposition Yposition Zposition Zrotation Yrotation Xrotation 
	JOINT LHipJoint
	{
		OFFSET 0 0 0
		CHANNELS 3 Zrotation Yrotation Xrotation
		JOINT LeftHip
		{
			OFFSET 1.81638 -1.86202 0.89635
			CHANNELS 3 Zrotation Yrotation Xrotation
			JOINT LeftKnee
			{
				OFFSET 2.63464 -7.23861 0.00000
				CHANNELS 3 Zrotation Yrotation Xrotation
				JOINT LeftAnkle
				{
					OFFSET 2.45871 -6.75336 0.00000
					CHANNELS 3 Zrotation Yrotation Xrotation
					JOINT LeftToe
					{
						OFFSET 0.34235 -0.94059 2.20020
						CHANNELS 3 Zrotation Yrotation Xrotation
						End Site
						{
							OFFSET 0.00000 -0.00000 1.18611
						}
					}
				}
			}
		}
	}
	JOINT RHipJoint
	{
		OFFSET 0 0 0
		CHANNELS 3 Zrotation Yrotation Xrotation
		JOINT RightHip
		{
			OFFSET -1.84405 -1.86203 0.89635
			CHANNELS 3 Zrotation Yrotation Xrotation
			JOINT RightKnee
			{
				OFFSET -2.71067 -7.44751 0.00000
				CHANNELS 3 Zrotation Yrotation Xrotation
				JOINT RightAnkle
				{
					OFFSET -2.47159 -6.79060 0.00000
					CHANNELS 3 Zrotation Yrotation Xrotation
					JOINT RightToe
					{
						OFFSET -0.26223 -0.72048 2.36007
						CHANNELS 3 Zrotation Yrotation Xrotation
						End Site
						{
							OFFSET -0.00000 -0.00000 1.23343
						}
					}
				}
			}
		}
	}
	JOINT lowerback
	{
		OFFSET 0 0 0
		CHANNELS 3 Zrotation Yrotation Xrotation
		JOINT Chest
		{
			OFFSET 0.02089 1.99248 -0.22512
			CHANNELS 3 Zrotation Yrotation Xrotation
			JOINT Chest2
			{
				OFFSET 0.01476 2.01356 -0.03079
				CHANNELS 3 Zrotation Yrotation Xrotation
				JOINT lowerneck
				{
					OFFSET 0 0 0
					CHANNELS 3 Zrotation Yrotation Xrotation
					JOINT Neck
					{
						OFFSET 0.04846 1.65098 0.06663
						CHANNELS 3 Zrotation Yrotation Xrotation
						JOINT Head
						{
							OFFSET -0.06061 1.60634 -0.07565
							CHANNELS 3 Zrotation Yrotation Xrotation
							End Site
							{
								OFFSET -0.02954 1.73562 -0.03642
							}
						}
					}
				}
				JOINT LeftCollar
				{
					OFFSET 0 0 0
					CHANNELS 3 Zrotation Yrotation Xrotation
					JOINT LeftShoulder
					{
						OFFSET 3.45234 1.47051 -0.06993
CHANNELS 3 Zrotation Xrotation Yrotation
						JOINT LeftElbow
						{
OFFSET 0 -5.493130 0.000000
CHANNELS 3 Zrotation Xrotation Yrotation
							JOINT LeftWrist
							{
OFFSET 0 -3.290370 0.000000
CHANNELS 3 Zrotation Xrotation Yrotation
								JOINT lhand
								{
									OFFSET 0 0 0
CHANNELS 3 Zrotation Xrotation Yrotation
									JOINT LFingers
									{
OFFSET 0 -0.729660 0.000000
CHANNELS 3 Zrotation Xrotation Yrotation
										End Site
										{
OFFSET 0 -0.588270 0.000000
										}
									}
								}
								JOINT LThumb
								{
OFFSET 0 0.000000 0.000000
CHANNELS 3 Zrotation Xrotation Yrotation
									End Site
									{
OFFSET 0 -0.597250 0.597250
									}
								}
							}
						}
					}
				}
				JOINT RightCollar
				{
					OFFSET 0 0 0
					CHANNELS 3 Zrotation Yrotation Xrotation
					JOINT RightShoulder
					{
						OFFSET -3.41935 1.44327 0.20453
CHANNELS 3 Zrotation Xrotation Yrotation
						JOINT RightElbow
						{
OFFSET 0 -5.236840 0.000000
CHANNELS 3 Zrotation Xrotation Yrotation
							JOINT RightWrist
							{
OFFSET 0 -3.382510 0.000000
CHANNELS 3 Zrotation Xrotation Yrotation
								JOINT rhand
								{
									OFFSET 0 0 0
CHANNELS 3 Zrotation Xrotation Yrotation
									JOINT RFingers
									{
OFFSET 0 -0.691450 0.000000
CHANNELS 3 Zrotation Xrotation Yrotation
										End Site
										{
OFFSET 0 -0.557470 0.000000
										}
									}
								}
								JOINT RThumb
								{
OFFSET 0 0.000000 0.000000
CHANNELS 3 Zrotation Xrotation Yrotation
									End Site
									{
OFFSET 0 -0.565980 0.565980
									}
								}
							}
						}
					}
				}
			}
		}
	}
}
MOTION
Frames: 12
Frame Time: 0.008333333333333333
-13.342400 17.978800 -1.799700 -149.412000 -82.883300 146.393000 0.000000 0.000000 0.000000 -9.727800 -2.306600 5.634500 0.193300 2.831500 7.810000 -0.076300 9.442600 -12.027700 0.194800 -2.841900 -7.839000 0.000000 0.000000 0.000000 18.078300 4.769600 3.890600 -0.261000 -3.286700 9.077900 0.801300 -16.795100 -12.923900 -0.002400 0.316200 -0.868700 1.043700 -1.609500 13.841700 1.746800 -2.122000 4.091700 1.592200 -1.147800 -3.410800 0.400800 -8.424100 -1.790300 -1.840500 -11.370700 -3.610400 -0.577900 -5.701600 -0.951200 -0.000000 0.000000 0.000000 12.101800 3.620900 -37.134800 35.335100 -45.050000 15.050000 -14.584000 3.345600 -11.180900 0.000000 0.000000 0.000000 -7.125000 0.000000 0.000000 -34.880300 38.611800 -6.456500 -0.000000 0.000000 0.000000 -14.357200 -2.315700 42.548200 -31.927300 -42.489200 -12.691700 0.221400 14.382000 14.466200 0.000000 0.000000 0.000000 7.125000 0.000000 -0.000000 24.861600 42.954800 1.345100
-13.333250 17.977981 -1.797583 -149.549244 -82.890060 146.610815 0.000000 0.000000 0.000000 -9.743573 -2.371740 5.402073 0.203815 2.906335 8.018119 -0.072749 9.428671 -12.078023 0.193776 -2.834594 -7.818584 0.000000 0.000000 0.000000 18.041155 4.867514 3.625740 -0.280733 -3.406532 9.412816 0.779245 -16.722723 -13.230070 -0.001990 0.288615 -0.792909 1.092589 -1.561157 13.855288 1.745639 -2.048940 4.061588 1.552666 -1.110860 -3.452724 -0.275723 -8.235851 -1.634211 -1.244070 -11.103314 -3.931660 -0.284909 -5.563195 -0.998382 0.000000 0.000000 0.000000 12.460477 3.299026 -37.599653 35.681214 -45.291781 15.295673 -14.514013 3.547642 -10.418822 0.000000 0.000000 0.000000 -7.125000 0.000000 0.000000 -34.505235 37.967164 -7.014966 0.000000 0.000000 0.000000 -14.571942 -2.451373 42.777827 -32.220291 -42.721558 -12.890260 -0.493428 14.946338 14.167814 0.000000 0.000000 0.000000 7.125000 0.000000 0.000000 24.143904 42.757811 1.424715
-13.324137 17.977710 -1.795393 -149.756684 -82.917221 146.894073 0.000000 0.000000 0.000000 -9.779125 -2.460827 5.142262 0.218279 3.006178 8.296033 -0.064994 9.397521 -12.183626 0.188949 -2.799063 -7.719855 0.000000 0.000000 0.000000 17.975201 4.851651 3.333277 -0.300320 -3.522489 9.737092 0.747648 -16.565049 -13.491854 -0.001654 0.263735 -0.724612 1.125610 -1.518591 13.880392 1.739067 -1.985313 4.027309 1.518323 -1.078454 -3.504703 -0.621698 -7.949399 -1.572559 -0.996505 -10.718274 -4.190546 -0.151542 -5.367939 -1.051742 0.000000 0.000000 0.000000 12.816559 2.980406 -38.016685 36.053395 -45.548845 15.560870 -14.536049 3.893661 -9.578576 0.000000 0.000000 0.000000 -7.125000 0.000000 0.000000 -34.172326 37.244397 -7.652038 0.000000 0.000000 0.000000 -14.792461 -2.576919 43.003323 -32.549222 -42.979765 -13.114083 -1.365542 15.663574 13.802815 0.000000 0.000000 0.000000 7.125000 0.000000 0.000000 23.271226 42.513073 1.514202
-13.315075 17.977542 -1.793092 -150.036114 -82.965295 147.244810 0.000000 0.000000 0.000000 -9.834960 -2.571798 4.861661 0.235955 3.125917 8.629507 -0.053974 9.353582 -12.332792 0.181385 -2.743203 -7.564724 0.000000 0.000000 0.000000 17.881419 4.741332 3.018879 -0.320080 -3.636323 10.055668 0.707966 -16.339822 -13.727724 -0.001332 0.231161 -0.635213 1.144977 -1.481052 13.915605 1.726349 -1.929927 3.989660 1.486911 -1.050005 -3.565259 -0.690953 -7.581195 -1.591424 -1.040661 -10.235373 -4.398021 -0.151744 -5.125411 -1.110497 0.000000 0.000000 0.000000 13.170979 2.659874 -38.395225 36.444668 -45.816422 15.840594 -14.592356 4.362374 -8.660531 0.000000 0.000000 0.000000 -7.125000 0.000000 0.000000 -33.841053 36.449116 -8.347004 0.000000 0.000000 0.000000 -15.018466 -2.695354 43.222533 -32.911256 -43.261473 -13.361281 -2.395076 16.523057 13.371651 0.000000 0.000000 0.000000 7.125000 0.000000 0.000000 22.244089 42.220548 1.612194
-13.306267 17.972489 -1.790156 -150.460818 -83.055494 147.735746 0.000000 0.000000 0.000000 -9.931714 -2.697298 4.619949 0.250841 3.222056 8.897576 -0.047965 9.337809 -12.424356 0.181181 -2.741838 -7.560832 0.000000 0.000000 0.000000 17.750525 4.686776 2.730872 -0.343773 -3.766397 10.420490 0.670822 -16.199096 -14.128598 -0.000376 0.067015 -0.184084 1.165802 -1.443702 13.952340 1.694598 -1.875303 3.955247 1.434881 -1.021874 -3.623912 -0.891971 -7.258160 -1.591766 -0.941381 -9.807665 -4.640894 -0.087492 -4.909781 -1.169697 0.000000 0.000000 0.000000 13.533138 2.277298 -38.813033 36.789758 -46.048029 16.088725 -14.051575 4.802032 -7.611675 0.000000 0.000000 0.000000 -7.125000 0.000000 0.000000 -33.052004 35.591855 -8.906972 0.000000 0.000000 0.000000 -15.250687 -2.835739 43.406344 -33.298474 -43.557264 -13.627575 -3.699301 17.508275 12.830802 0.000000 0.000000 0.000000 7.125000 0.000000 0.000000 20.954886 41.844664 1.709426
-13.296672 17.968968 -1.787385 -150.745997 -83.125612 148.089641 0.000000 0.000000 0.000000 -9.998989 -2.814269 4.380389 0.264939 3.310742 9.145069 -0.044565 9.339177 -12.491576 0.184288 -2.764899 -7.624881 0.000000 0.000000 0.000000 17.633750 4.532854 2.383908 -0.370779 -3.909430 10.822244 0.632476 -16.041064 -14.492542 -0.000787 -0.116549 0.320247 1.189236 -1.414882 13.988246 1.671832 -1.831898 3.927996 1.392374 -0.999580 -3.674077 -1.297971 -6.983525 -1.553106 -0.635048 -9.435683 -4.900784 0.072813 -4.720732 -1.222561 0.000000 0.000000 0.000000 13.902750 1.910580 -39.175941 37.218397 -46.331307 16.398339 -13.354168 5.324494 -6.550812 0.000000 0.000000 0.000000 -7.125000 0.000000 0.000000 -32.165328 34.730288 -9.388483 0.000000 0.000000 0.000000 -15.505681 -3.039469 43.656482 -33.671740 -43.839061 -13.885506 -5.164705 18.484013 12.198205 0.000000 0.000000 0.000000 7.125000 0.000000 0.000000 19.509471 41.388046 1.805001
-13.286567 17.966732 -1.784674 -150.954346 -83.188543 148.368028 0.000000 0.000000 0.000000 -10.051348 -2.929827 4.143233 0.278585 3.394542 9.379125 -0.042083 9.345214 -12.547968 0.188103 -2.793110 -7.703273 0.000000 0.000000 0.000000 17.523177 4.307695 1.989084 -0.400516 -4.062455 11.252591 0.599220 -15.907720 -14.806851 -0.001793 -0.274840 0.755056 1.212649 -1.391995 14.023209 1.653621 -1.796640 3.906276 1.355768 -0.981521 -3.717561 -1.325087 -6.611335 -1.621724 -0.707186 -8.952517 -5.089156 0.047528 -4.480103 -1.266792 0.000000 0.000000 0.000000 14.277501 1.535952 -39.507034 37.683083 -46.635444 16.734930 -12.522383 5.875180 -5.489116 0.000000 0.000000 0.000000 -7.125000 0.000000 0.000000 -31.198503 33.872403 -9.794930 0.000000 0.000000 0.000000 -15.773811 -3.284458 43.934466 -34.049223 -44.120643 -14.147554 -6.727155 19.448716 11.512823 0.000000 0.000000 0.000000 7.125000 0.000000 0.000000 17.974091 40.882065 1.891329
-13.276461 17.966254 -1.781670 -151.245903 -83.286867 148.727866 0.000000 0.000000 0.000000 -10.129256 -3.070348 3.912172 0.292582 3.478049 9.612712 -0.034914 9.312166 -12.634479 0.183187 -2.756512 -7.601535 0.000000 0.000000 0.000000 17.394673 4.041811 1.536248 -0.433768 -4.225031 11.710889 0.601473 -15.991773 -14.965876 -0.001042 -0.203896 0.560115 1.225691 -1.371511 14.055711 1.627674 -1.766596 3.889889 1.317463 -0.966158 -3.753954 1.746032 -5.458624 -2.492777 -3.883184 -7.577554 -4.777865 -1.478267 -3.822904 -1.283657 0.000000 0.000000 0.000000 14.654067 1.051161 -39.861273 38.037663 -46.862818 16.993235 -11.492714 6.271343 -4.469552 0.000000 0.000000 0.000000 -7.125000 0.000000 0.000000 -30.130187 33.053720 -10.055352 0.000000 0.000000 0.000000 -16.031979 -3.530268 44.120394 -34.507044 -44.455900 -14.467380 -8.243664 20.383885 10.868461 0.000000 0.000000 0.000000 7.125000 0.000000 0.000000 16.507973 40.394542 1.928200
-13.266217 17.965591 -1.779081 -151.691915 -83.384775 149.242159 0.000000 0.000000 0.000000 -10.208783 -3.037872 3.632509 0.305054 3.550643 9.815825 -0.020114 9.138537 -12.656989 0.180999 -2.740214 -7.556307 0.000000 0.000000 0.000000 17.248180 3.833639 1.105192 -0.471183 -4.400185 12.205767 0.589067 -16.028796 -15.275703 -0.001910 -0.266921 0.733367 1.226432 -1.346033 14.084929 1.593126 -1.732483 3.879744 1.276151 -0.948760 -3.782024 2.999818 -4.739448 -2.912955 -5.250404 -6.695826 -4.725170 -2.136808 -3.396830 -1.284614 0.000000 0.000000 0.000000 15.064577 0.541120 -40.190911 38.453424 -47.125244 17.297506 -10.360707 6.539596 -3.535354 0.000000 0.000000 0.000000 -7.125000 0.000000 0.000000 -29.031673 32.305975 -10.193551 0.000000 0.000000 0.000000 -16.295096 -3.834113 44.316773 -34.962043 -44.783573 -14.787113 -9.782324 21.213202 10.271405 0.000000 0.000000 0.000000 7.125000 0.000000 0.000000 15.047912 39.942859 1.917949
-13.255921 17.964521 -1.776750 -152.175509 -83.487132 149.791564 0.000000 0.000000 0.000000 -10.285203 -2.909797 3.322481 0.317103 3.619444 10.008439 -0.000778 8.878338 -12.640882 0.181041 -2.740577 -7.557397 0.000000 0.000000 0.000000 17.089339 3.619447 0.670776 -0.510885 -4.580374 12.715737 0.568934 -16.027373 -15.630070 -0.003679 -0.389109 1.069192 1.223170 -1.320571 14.112669 1.555467 -1.699380 3.873824 1.233873 -0.931904 -3.804820 3.352100 -4.242088 -3.080410 -5.724162 -6.068197 -4.820642 -2.364642 -3.089408 -1.289393 0.000000 0.000000 0.000000 15.487442 0.015388 -40.502942 38.915493 -47.413278 17.636827 -9.140964 6.690120 -2.677290 0.000000 0.000000 0.000000 -7.125000 0.000000 0.000000 -27.904347 31.622318 -10.231359 0.000000 0.000000 0.000000 -16.560425 -4.169900 44.504726 -35.430601 -45.116216 -15.117986 -11.317393 21.972499 9.697256 0.000000 0.000000 0.000000 7.125000 0.000000 0.000000 13.606599 39.503954 1.879462
-13.245679 17.962267 -1.774633 -152.525788 -83.606691 150.198516 0.000000 0.000000 0.000000 -10.347269 -2.733019 2.985790 0.330281 3.693460 10.215943 0.021891 8.545676 -12.594724 0.184523 -2.766797 -7.630253 0.000000 0.000000 0.000000 16.916521 3.281186 0.185507 -0.551717 -4.757016 13.217052 0.546060 -15.966604 -15.883323 -0.005933 -0.493988 1.357336 1.226789 -1.303978 14.140733 1.521463 -1.677188 3.872527 1.193314 -0.920637 -3.822778 3.573056 -3.801065 -3.107722 -6.081268 -5.511097 -5.008413 -2.527969 -2.813486 -1.336370 0.000000 0.000000 0.000000 15.896169 -0.523891 -40.793203 39.441048 -47.734265 18.024796 -7.776994 6.630512 -1.950444 0.000000 0.000000 0.000000 -7.125000 0.000000 0.000000 -26.723642 31.050742 -10.113165 0.000000 0.000000 0.000000 -16.825217 -4.521544 44.643062 -35.954312 -45.480629 -15.490251 -12.800104 22.659332 9.124452 0.000000 0.000000 0.000000 7.125000 0.000000 0.000000 12.223988 39.049138 1.819580
-13.235029 17.959708 -1.773691 -152.876578 -83.731767 150.607000 0.000000 0.000000 0.000000 -10.404024 -2.558539 2.637503 0.344737 3.772227 10.436883 0.046655 8.194571 -12.577021 0.182539 -2.751740 -7.588371 0.000000 0.000000 0.000000 16.751622 2.976181 -0.292712 -0.594388 -4.933811 13.720206 0.524566 -15.912424 -16.121964 -0.006602 -0.523669 1.438840 1.219526 -1.282789 14.206037 1.495684 -1.648561 3.854116 1.167774 -0.905948 -3.878385 3.782773 -3.373630 -3.279707 -6.411913 -4.971314 -5.122519 -2.684552 -2.549570 -1.330627 0.000000 0.000000 0.000000 16.276543 -1.074460 -41.054600 40.030663 -48.085800 18.462727 -6.545232 6.480022 -1.418029 0.000000 0.000000 0.000000 -7.125000 0.000000 0.000000 -25.694659 30.636100 -9.928459 0.000000 0.000000 0.000000 -17.142115 -4.900366 44.829725 -36.494217 -45.848107 -15.876769 -14.227897 23.081800 8.623830 0.000000 0.000000 0.000000 7.125000 0.000000 0.000000 10.914531 38.651231 1.725063
